<svg xmlns="http://www.w3.org/2000/svg" data-name="Layer 1" viewBox="0 0 100 100" style="max-width:100%"><path d="M27.945 28.17c6.324 4.209 13.812 5.093 18.98 5.093a41.632 41.632 0 007.632-.652 2.249 2.249 0 001.756-2.64c-.124-.624-3.142-15.355-14.374-22.83C35.616 2.932 28.129 2.05 22.96 2.05a41.672 41.672 0 00-7.634.651 2.25 2.25 0 00-1.756 2.64c.123.624 3.143 15.355 14.375 22.83zM22.96 6.55c4.547 0 11.099.752 16.486 4.337 7.217 4.804 10.59 13.51 11.842 17.65a42.023 42.023 0 01-4.363.226c-4.547 0-11.099-.754-16.488-4.338-7.216-4.803-10.59-13.51-11.842-17.65a42.065 42.065 0 014.365-.225zm72.339 61.972c.078-.098.152-.198.226-.298.153-.207.295-.418.43-.632 3.742-5.784 2.188-14.617-4.061-20.868a19.796 19.796 0 00-13.695-6.107 13.134 13.134 0 00-7.24 2.07 9.886 9.886 0 011.54-12.048c.01-.01.017-.023.027-.033l20.307-20.308a2.25 2.25 0 00-3.182-3.182L49.305 47.464a21.19 21.19 0 00-13.399-4.397c-8.221 0-16.758 3.823-23.42 10.489A35.012 35.012 0 002.23 73.469c-.954 7.323 1.022 13.88 5.557 18.483.026.026.048.054.073.08l.006.004.023.025c.074.074.157.135.231.208.243.232.488.46.742.67A20.985 20.985 0 0022.98 97.95c8.222 0 16.758-3.823 23.42-10.488 11.2-11.198 13.67-27.186 6.089-36.817L65.092 38.04a14.316 14.316 0 002.614 7.882 13.44 13.44 0 00-2.01 9.401 20.432 20.432 0 005.971 11.625 19.792 19.792 0 0013.694 6.109h.001a13.045 13.045 0 007.524-2.277c.092-.063.18-.13.271-.197.165-.121.33-.241.488-.372.263-.216.521-.446.767-.69.01-.009.02-.016.028-.025l.002-.003.016-.014a10.893 10.893 0 00.84-.957zM8.637 84.379a3.688 3.688 0 01.798-3.145 3.292 3.292 0 012.358-.858 7.822 7.822 0 015.259 2.467 8.313 8.313 0 012.406 4.471 3.69 3.69 0 01-.797 3.144 3.295 3.295 0 01-2.36.86 7.479 7.479 0 01-4.59-1.864c-.162-.144-.328-.284-.485-.436-.056-.053-.115-.101-.17-.156-.283-.285-.533-.595-.791-.9a7.89 7.89 0 01-1.628-3.583zm34.58-.099c-5.824 5.828-13.201 9.17-20.238 9.17-.317 0-.624-.025-.936-.039a8.104 8.104 0 001.866-6.761 12.717 12.717 0 00-3.675-6.99 12.213 12.213 0 00-8.441-3.784 7.797 7.797 0 00-5.258 1.922 22.216 22.216 0 01.158-3.75 30.506 30.506 0 018.974-17.31c5.826-5.829 13.203-9.17 20.24-9.17a16.387 16.387 0 0111.906 4.57c7.593 7.597 5.532 22.016-4.596 32.142zM91.26 66.312l-.014.014c-.14.14-.29.27-.442.397a4.848 4.848 0 01-2.955 1.208 1.834 1.834 0 01-1.3-.451c-.84-.842-.563-2.992 1.18-4.732a5.118 5.118 0 013.423-1.63 1.585 1.585 0 011.753 1.754 4.75 4.75 0 01-1.07 2.781 7.022 7.022 0 01-.575.66zM70.158 54.743a8.588 8.588 0 012.144-7.385 8.112 8.112 0 015.896-2.24 15.502 15.502 0 0110.514 4.787 16.78 16.78 0 014.248 6.954 6.837 6.837 0 00-1.809-.24 9.547 9.547 0 00-6.605 2.946A8.886 8.886 0 0081.832 68a16.814 16.814 0 01-6.983-4.233 15.917 15.917 0 01-4.69-9.024z" fill="currentColor"/></svg>