<svg xmlns="http://www.w3.org/2000/svg" viewBox="0 0 100 100" style="max-width:100%"><path d="M51.431 4.589a2.583 2.583 0 00-3.834 0c-.081.09-8.241 9.153-16.283 20.353C20.309 40.268 14.729 52.18 14.729 60.346c0 20.089 15.28 35.825 34.786 35.825s34.786-15.736 34.786-35.825c0-8.166-5.581-20.077-16.587-35.404-8.042-11.2-16.201-20.263-16.283-20.353zm.666 86.305V77.916l16.83-10.348a2.582 2.582 0 10-2.705-4.399l-14.125 8.684V52.656l10.02-6.634a2.583 2.583 0 00-2.851-4.307l-7.169 4.746V37.61a2.582 2.582 0 10-5.164 0v21.755l-10.55-6.984a2.582 2.582 0 10-2.851 4.307l13.401 8.872v25.336c-15.357-1.313-27.039-14.258-27.039-30.549 0-6.956 5.391-18.144 15.59-32.353 5.561-7.748 11.181-14.453 14.032-17.756 2.851 3.303 8.471 10.008 14.032 17.756 10.199 14.209 15.59 25.397 15.59 32.353-.002 16.29-11.684 29.234-27.041 30.547z" fill="currentColor"/></svg>