<svg xmlns="http://www.w3.org/2000/svg" viewBox="0 0 86 75" style="max-width:100%"><g fill="currentColor" stroke="currentColor" fill-rule="evenodd"><path d="M23.46 41.81c-3.94-3-8-6.06-10.33-10.38a7.6 7.6 0 01-1.05-3.25c-.12-3 2.37-5.29 4.65-7.17.2 1.28-1.16 2.17-1.91 3.22a5.09 5.09 0 00-.17 5A13.87 13.87 0 0018 33.31a120.88 120.88 0 0029.46 20.2c3.15 1.53 6.58 3 10 2.41a13.58 13.58 0 007.39-4.33c1.11-1.15 2.53-2.54 4-2 .34 1.8-1 3.43-2.36 4.7-2.49 2.43-5.32 4.89-8.8 5.37-3 .45-6.11-.62-8.93-1.87-9.15-4.03-17.3-9.98-25.3-15.98h0z"/><path d="M59.34 74.68c-3.92.8-7.87-.91-11.44-2.71A166.06 166.06 0 018 43.75a32.08 32.08 0 01-6.15-7.34 12.4 12.4 0 01-1.48-9.23 17.08 17.08 0 012.28-4.51A95.63 95.63 0 0116.91 5.46a20.39 20.39 0 016-4.36 15.19 15.19 0 0110.64.08 42.41 42.41 0 019.51 5.13 482.339 482.339 0 0132.13 23.3 36.36 36.36 0 017.69 7.51c2 3 3.21 6.71 2.35 10.21a18 18 0 01-3.4 6.23 124.71 124.71 0 01-14.31 16c-2.37 2.23-5 4.44-8.16 5.1l-.02.02zm.37-4.19c2.56-.64 4.62-2.47 6.52-4.31a133.58 133.58 0 0013.2-14.8 12.16 12.16 0 002.66-5c.66-3.59-1.81-7-4.4-9.53a93.81 93.81 0 00-11.09-8.94A1071.374 1071.374 0 0042 10.78a40.57 40.57 0 00-9-5.05 14 14 0 00-10.16-.06A21 21 0 0017 10.04l-4.84 4.61a37.05 37.05 0 00-6.6 7.53c-1.72 2.89-2.63 6.42-1.7 9.65.86 3 3.12 5.29 5.35 7.43a185.9 185.9 0 0035.11 26.46 50.35 50.35 0 008.13 4 12.64 12.64 0 007.24.79l.02-.02z"/><path d="M59.19 34.9a436.71 436.71 0 00-21.48-15.06c-2.41-1.59-5-3.2-7.86-3.41-1.18-.09-2.65-.09-3.17-1.15A2 2 0 0128 12.8a5 5 0 013.14.37 51.08 51.08 0 0110.31 5.69c6.067 4 12.033 8.163 17.9 12.49 3.05 2.24 6.14 4.59 8.22 7.75.499.598.72 1.38.61 2.15-.21.74-1.33 1.16-1.76.53-1.83-2.79-4.55-4.88-7.23-6.88h0z"/></g></svg>